<svg version="1.1" id="Layer_1" xmlns="http://www.w3.org/2000/svg" xmlns:xlink="http://www.w3.org/1999/xlink" x="0px" y="0px"
	 width="100%" viewBox="0 0 336 336" enable-background="new 0 0 336 336" xml:space="preserve">
<path fill="#000000" opacity="1.000000" stroke="none" 
	d="
M266.798065,323.265503 
	C259.689758,325.306488 253.212982,324.778168 247.032303,321.491364 
	C240.871964,318.215332 236.762070,313.188965 234.344162,306.653961 
	C231.899643,300.047150 233.291824,293.610229 235.325882,287.269287 
	C231.003922,286.092133 205.208527,286.054840 200.310760,287.214111 
	C204.925720,302.822021 201.639999,315.601837 185.747482,322.635620 
	C175.845825,327.017914 164.161377,323.919800 157.031204,315.889709 
	C149.138870,307.001251 148.551437,296.548828 155.324661,283.227600 
	C155.034027,282.807129 154.788116,282.112305 154.297638,281.792236 
	C145.887039,276.303802 142.137299,267.870941 139.840805,258.631134 
	C124.433472,196.640671 109.091660,134.633926 93.717598,72.635185 
	C91.755333,64.722008 89.888130,56.780296 87.696487,48.930088 
	C84.198601,36.401031 78.710274,32.285248 65.798523,32.192566 
	C57.633251,32.133949 49.466698,32.235973 41.301769,32.157131 
	C38.646328,32.131493 37.166019,32.956993 36.130451,35.671867 
	C33.449348,42.700706 27.589973,45.779514 20.690950,44.314243 
	C14.669214,43.035297 10.583019,37.672073 10.669587,31.160976 
	C10.760622,24.313820 14.847755,19.566315 22.279594,18.408180 
	C26.031895,17.823444 29.918304,17.912209 33.738579,17.985008 
	C46.390030,18.226103 59.046837,17.404930 71.698654,18.569790 
	C84.576424,19.755453 93.337875,26.242043 98.498970,37.976719 
	C102.218430,46.433582 103.500145,55.565041 105.949730,64.368202 
	C108.801086,74.615257 111.253159,84.985619 113.485718,95.386780 
	C114.409576,99.690887 116.462036,100.833443 120.666428,100.819084 
	C162.494446,100.676277 204.323105,100.724373 246.151596,100.722168 
	C266.149261,100.721107 286.147003,100.697548 306.144592,100.744011 
	C315.897217,100.766678 318.554840,104.527908 315.138031,113.569427 
	C300.717529,151.728683 286.160278,189.836578 271.877808,228.047272 
	C269.876190,233.402252 266.981171,235.520813 261.207123,235.488022 
	C225.879044,235.287430 190.549194,235.385803 155.219986,235.420898 
	C153.265579,235.422836 151.216034,234.941574 148.698059,236.450821 
	C151.154221,246.345505 152.389832,256.837555 157.558701,266.061279 
	C161.150009,272.469910 168.084915,272.567047 174.412689,272.604767 
	C199.242264,272.752747 224.073242,272.665771 248.903702,272.667572 
	C256.069519,272.668091 263.235382,272.684662 270.401184,272.672913 
	C275.076416,272.665222 278.136871,274.543457 278.360016,279.580322 
	C278.440125,281.387878 279.439178,282.677216 280.321716,284.079712 
	C289.985870,299.437439 284.209137,316.645935 266.798065,323.265503 
M185.499939,221.687668 
	C208.165787,221.688309 230.832642,221.578430 253.496567,221.786728 
	C257.815308,221.826416 260.003326,220.577789 261.554352,216.414383 
	C272.309021,187.545654 283.379669,158.794739 294.181427,129.943314 
	C296.012970,125.051216 298.545288,120.328781 299.295471,114.855743 
	C239.044724,114.855743 179.151337,114.855743 118.954376,114.855743 
	C119.125763,116.423401 119.120453,117.587219 119.391968,118.682419 
	C127.558258,151.622833 135.780762,184.549347 143.895218,217.502472 
	C144.679947,220.689285 146.301941,221.771149 149.501923,221.734909 
	C161.166611,221.602737 172.833725,221.685501 185.499939,221.687668 
M169.320511,288.685730 
	C163.993774,293.815094 162.832748,299.332611 165.956741,304.671173 
	C168.696823,309.353668 174.641754,311.730865 179.677170,310.157593 
	C186.733368,307.952972 190.178589,300.741821 187.479263,293.827240 
	C184.887665,287.188599 177.727051,284.926117 169.320511,288.685730 
M270.755768,296.050201 
	C268.689575,289.424347 263.656128,285.759247 257.609314,286.477600 
	C252.192108,287.121155 247.694183,291.638336 247.223740,296.907593 
	C246.626541,303.596741 249.725647,308.305603 255.863770,310.243652 
	C262.762482,312.421875 272.411682,306.557678 270.755768,296.050201 
z"/>
</svg>